:SAMPLES-PER-SECOND 30
:FULLY-SPECIFIED
:DEGREES
247
root  -40.4711 28.6537 10.2546 -161.949 87.1012 -172.818
RightUpLeg  -51.1279 -8.56595 2.29755
RightLeg  69.7441 -0.541808 -1.39119
RightFoot  -20.0395 0.0221846 0.674688
RightToes  -16.0769 -0.0609875 -0.145892
Spine  12.1067 -0.621829 0.399103
Spine1  22.9481 -1.48828 1.23655
HEad  -31.8856 -1.61118 -6.54414
LeftShoulder1  -1.94126e-019 -3.10601e-018 -2.51263e-017
LeftArm  18.4444 -26.3539 -82.6365
LeftForeArm  27.6808 -21.4821 -3.08495
LeftHand  -0.444627 -0.309558 9.1493
RightShoulder  -4.96962e-017 0 -2.36833e-017
RightArm  -7.76051 13.63 75.7801
RightForeArm  52.7834 15.2651 1.16892
RightHand  -0.198807 -3.4212 -11.0359
LeftUpLeg  -49.7064 12.8562 1.1112
LeftLeg  72.0937 4.6033 11.4447
LeftFoot  -17.6396 -0.624004 -3.85846
LeftToes  -16.8989 1.83942e-006 5.51297e-008
248
root  -40.1303 28.7699 10.3258 -170.986 85.1255 179.633
RightUpLeg  -48.5585 -10.2798 1.84145
RightLeg  69.518 -0.694873 -1.71648
RightFoot  -20.8269 0.0566627 0.85994
RightToes  -16.0168 -0.0603844 -0.143489
Spine  11.4602 -0.39819 0.27541
Spine1  21.8892 -0.978354 1.03445
HEad  -32.1293 -1.40331 -6.93606
LeftShoulder1  -1.94126e-019 -3.10601e-018 -2.51263e-017
LeftArm  18.1972 -24.374 -82.8899
LeftForeArm  27.719 -21.6476 -3.11552
LeftHand  -0.428139 -0.283895 8.85013
RightShoulder  -4.96962e-017 0 -2.36833e-017
RightArm  -7.63481 11.272 76.4449
RightForeArm  53.1968 14.9375 1.19129
RightHand  -0.213309 -3.29182 -11.1896
LeftUpLeg  -47.4959 12.8029 1.22554
LeftLeg  71.1626 3.99754 9.52448
LeftFoot  -17.6106 -0.517183 -3.1763
LeftToes  -18.1207 1.83942e-006 5.51297e-008
249
root  -39.7413 28.935 10.4062 -175.87 83.0699 176.4
RightUpLeg  -45.5776 -11.9262 1.25071
RightLeg  69.0271 -0.905667 -2.13465
RightFoot  -21.4743 0.101291 1.08886
RightToes  -15.8316 -0.0594606 -0.14113
Spine  10.8585 -0.173398 0.17298
Spine1  20.9065 -0.415911 0.776645
HEad  -32.6754 -0.961871 -7.1992
LeftShoulder1  -1.94126e-019 -3.10601e-018 -2.51263e-017
LeftArm  17.7894 -22.0341 -82.7986
LeftForeArm  27.9757 -22.0038 -3.17276
LeftHand  -0.425302 -0.163349 8.97205
RightShoulder  -4.96962e-017 0 -2.36833e-017
RightArm  -6.84198 8.9775 77.0793
RightForeArm  54.3604 14.9199 1.1689
RightHand  -0.298872 -2.44558 -11.48
LeftUpLeg  -44.8672 12.7735 1.4283
LeftLeg  69.9071 3.40201 7.65278
LeftFoot  -17.425 -0.407289 -2.49578
LeftToes  -19.342 1.83942e-006 5.51297e-008
250
root  -39.3557 29.1529 10.5001 -178.824 81.1613 174.881
RightUpLeg  -42.6412 -13.4106 0.719766
RightLeg  68.1458 -1.1563 -2.57141
RightFoot  -21.9315 0.150211 1.33324
RightToes  -15.3995 -0.0572862 -0.138843
Spine  10.1724 0.120533 0.104161
Spine1  19.7539 0.371994 0.450374
HEad  -33.3308 -0.213519 -7.62269
LeftShoulder1  -1.94126e-019 -3.10601e-018 -2.51263e-017
LeftArm  17.5841 -19.1456 -82.0087
LeftForeArm  27.7586 -23.8213 -3.55682
LeftHand  -0.404502 0.290967 9.25318
RightShoulder  -4.96962e-017 0 -2.36833e-017
RightArm  -6.54745 6.86094 77.8987
RightForeArm  55.1921 15.2175 1.11929
RightHand  -0.334301 -2.03309 -11.3487
LeftUpLeg  -42.2621 12.8117 1.71144
LeftLeg  68.3265 2.6879 5.63374
LeftFoot  -17.135 -0.289578 -1.76042
LeftToes  -21.1882 1.83942e-006 5.51297e-008
251
root  -38.9161 29.4087 10.5907 178.545 79.3077 173.94
RightUpLeg  -39.1594 -14.5088 0.0358595
RightLeg  66.9559 -1.57168 -3.25854
RightFoot  -22.3063 0.221371 1.68564
RightToes  -15.1497 -0.0545215 -0.136727
Spine  9.65305 0.332971 0.0208298
Spine1  18.8491 0.960513 0.174262
HEad  -34.121 0.532169 -8.1997
LeftShoulder1  -1.94126e-019 -3.10601e-018 -2.51263e-017
LeftArm  17.5756 -15.9332 -80.68
LeftForeArm  27.5074 -26.7657 -4.20156
LeftHand  -0.395697 -0.461387 7.95112
RightShoulder  -4.96962e-017 0 -2.36833e-017
RightArm  -6.41104 4.98959 78.5856
RightForeArm  55.6435 15.8892 1.05122
RightHand  -0.285305 -2.61268 -11.5782
LeftUpLeg  -39.1163 12.6876 2.16081
LeftLeg  66.488 2.01524 3.89879
LeftFoot  -16.7455 -0.191582 -1.14009
LeftToes  -22.8656 1.83942e-006 5.51297e-008
252
root  -38.5366 29.7008 10.7027 177.823 77.7803 173.807
RightUpLeg  -36.8139 -15.2138 -0.171674
RightLeg  65.3968 -2.08001 -3.98505
RightFoot  -22.4635 0.292554 2.041
RightToes  -14.1889 -0.0518422 -0.128537
Spine  8.85677 0.440727 -0.0375543
Spine1  17.3838 1.14866 0.163825
HEad  -35.4625 1.26915 -8.87041
LeftShoulder1  -1.94126e-019 -3.10601e-018 -2.51263e-017
LeftArm  17.4132 -11.9499 -78.8393
LeftForeArm  27.6379 -31.3474 -5.25357
LeftHand  -0.373131 -0.473785 7.48693
RightShoulder  -4.96962e-017 0 -2.36833e-017
RightArm  -6.50627 3.57044 78.9937
RightForeArm  54.919 16.3345 1.05372
RightHand  -0.281775 -2.94133 -12.9319
LeftUpLeg  -37.0843 12.5729 2.54603
LeftLeg  64.5257 1.36578 2.43112
LeftFoot  -16.1758 -0.112844 -0.632554
LeftToes  -24.1823 1.83942e-006 5.51297e-008
253
root  -38.1773 30.0549 10.7497 177.658 75.6319 174.573
RightUpLeg  -33.8417 -16.8387 -0.486654
RightLeg  63.3185 -2.53746 -4.43176
RightFoot  -22.215 0.331221 2.25833
RightToes  -13.8567 -0.0499236 -0.125689
Spine  8.2296 0.269934 0.0330652
Spine1  16.2197 0.776603 0.330171
HEad  -36.9361 2.03474 -9.67901
LeftShoulder1  -1.94126e-019 -3.10601e-018 -2.51263e-017
LeftArm  17.2494 -7.7113 -76.9723
LeftForeArm  27.9523 -36.2383 -6.48854
LeftHand  -0.329861 -0.304599 6.80779
RightShoulder  -4.96962e-017 0 -2.36833e-017
RightArm  -6.4378 2.3619 79.0259
RightForeArm  54.8939 17.111 1.08919
RightHand  -0.252723 -3.39905 -14.1517
LeftUpLeg  -34.6707 11.3913 2.98991
LeftLeg  62.124 0.869129 1.40077
LeftFoot  -15.3601 -0.0597335 -0.281449
LeftToes  -25.8893 1.83942e-006 5.51297e-008
254
root  -37.7863 30.4804 10.8755 176.775 74.804 174.216
RightUpLeg  -31.1281 -16.8635 -0.629808
RightLeg  60.6755 -3.16495 -4.95071
RightFoot  -21.7707 0.371429 2.50704
RightToes  -13.1098 -0.0489087 -0.11925
Spine  7.48846 0.390328 0.0152703
Spine1  14.8188 0.973254 0.405275
HEad  -38.5074 2.9233 -10.6044
LeftShoulder1  -1.94126e-019 -3.10601e-018 -2.51263e-017
LeftArm  17.0029 -2.78111 -74.9452
LeftForeArm  27.8071 -41.5718 -8.0671
LeftHand  -0.282497 0.183612 6.335
RightShoulder  -4.96962e-017 0 -2.36833e-017
RightArm  -5.92369 0.952536 78.7701
RightForeArm  54.723 18.5286 1.33735
RightHand  -0.228681 -3.64483 -14.5062
LeftUpLeg  -32.1065 11.8446 3.43472
LeftLeg  59.0562 0.170244 0.234068
LeftFoot  -14.187 -0.00865452 0.0919583
LeftToes  -28.1219 1.83942e-006 5.51297e-008
255
root  -37.4761 30.9179 10.9738 177.3 73.9002 174.452
RightUpLeg  -29.3373 -17.4673 -0.438705
RightLeg  57.7431 -3.63384 -5.07328
RightFoot  -20.9338 0.363792 2.54682
RightToes  -12.9091 -0.0484062 -0.117916
Spine  6.50952 0.446704 0.0274808
Spine1  12.9516 1.00086 0.578532
HEad  -40.4285 3.46772 -11.1905
LeftShoulder1  -1.94126e-019 -3.10601e-018 -2.51263e-017
LeftArm  16.9054 2.54893 -72.8802
LeftForeArm  28.0425 -47.4313 -10.1371
LeftHand  -0.260119 0.149372 5.79745
RightShoulder  -4.96962e-017 0 -2.36833e-017
RightArm  -5.33321 -0.794598 78.14
RightForeArm  54.0372 21.3058 1.88044
RightHand  -0.233041 -3.5804 -14.4421
LeftUpLeg  -30.4901 11.762 3.74089
LeftLeg  56.0067 -0.41088 -0.543276
LeftFoot  -13.0334 0.0181206 0.320133
LeftToes  -28.9888 1.83942e-006 5.51297e-008
256
root  -37.1724 31.363 11.0261 177.545 72.6861 174.754
RightUpLeg  -26.9882 -18.8475 -0.522442
RightLeg  54.5177 -3.77976 -4.68942
RightFoot  -19.9826 0.314987 2.3645
RightToes  -13.0213 -0.0482901 -0.118483
Spine  5.76127 0.404507 0.106074
Spine1  11.4783 0.90379 0.751057
HEad  -42.494 3.87589 -11.558
LeftShoulder1  -1.94126e-019 -3.10601e-018 -2.51263e-017
LeftArm  16.4425 7.85338 -71.2465
LeftForeArm  28.7385 -52.8659 -12.5257
LeftHand  -0.226391 0.0841522 4.98884
RightShoulder  -4.96962e-017 0 -2.36833e-017
RightArm  -4.43723 -2.71501 77.1013
RightForeArm  53.2157 25.3113 2.69574
RightHand  -0.262159 -3.27729 -13.8691
LeftUpLeg  -28.5189 11.087 3.96891
LeftLeg  52.6426 -0.818659 -0.950327
LeftFoot  -11.7155 0.0267521 0.422255
LeftToes  -27.8901 1.83942e-006 5.51297e-008
257
root  -36.8193 31.8271 11.1224 177.425 72.4682 174.575
RightUpLeg  -24.687 -19.3755 -0.485649
RightLeg  50.9466 -3.87291 -4.231
RightFoot  -18.8217 0.260097 2.14435
RightToes  -13.1559 -0.0484348 -0.119648
Spine  5.0429 0.676787 0.100968
Spine1  10.0587 1.44842 0.785481
HEad  -44.5524 4.14072 -11.6547
LeftShoulder1  -1.94126e-019 -3.10601e-018 -2.51263e-017
LeftArm  15.8265 13.2265 -69.9142
LeftForeArm  30.1468 -57.779 -15.2707
LeftHand  -0.205456 0.198866 4.61499
RightShoulder  -4.96962e-017 0 -2.36833e-017
RightArm  -3.54664 -4.64525 76.0727
RightForeArm  52.359 28.9846 3.49327
RightHand  -0.306093 -2.70449 -12.8778
LeftUpLeg  -26.1665 11.5888 4.37035
LeftLeg  49.0054 -1.46493 -1.48991
LeftFoot  -10.1952 0.0335938 0.538086
LeftToes  -31.8316 1.83942e-006 5.51297e-008
258
root  -36.5243 32.2776 11.197 177.677 72.0918 174.516
RightUpLeg  -22.6463 -20.2604 -0.414778
RightLeg  47.1831 -3.77104 -3.61047
RightFoot  -17.4428 0.195027 1.84372
RightToes  -13.5974 -0.0487144 -0.120734
Spine  4.30331 0.75893 0.159922
Spine1  8.59207 1.6004 0.939078
HEad  -46.6848 4.50546 -11.6628
LeftShoulder1  -1.94126e-019 -3.10601e-018 -2.51263e-017
LeftArm  14.6662 18.6579 -69.2502
LeftForeArm  31.9771 -61.8856 -18.249
LeftHand  -0.202722 0.169412 4.53068
RightShoulder  -4.96962e-017 0 -2.36833e-017
RightArm  -2.55924 -6.35773 74.9458
RightForeArm  51.761 32.4994 4.29914
RightHand  -0.327845 -2.18541 -11.6357
LeftUpLeg  -24.1737 11.809 4.57726
LeftLeg  45.1635 -2.03481 -1.8059
LeftFoot  -8.80498 0.0325469 0.584237
LeftToes  -29.5096 1.83942e-006 5.51297e-008
259
root  -36.2612 32.7066 11.2748 178.76 71.7074 175.085
RightUpLeg  -20.8075 -20.9485 -0.0364595
RightLeg  43.2004 -3.76268 -3.12804
RightFoot  -15.9139 0.144751 1.6064
RightToes  -13.7804 -0.0495665 -0.121793
Spine  3.56554 0.804616 0.249328
Spine1  7.12773 1.67253 1.15727
HEad  -48.8417 4.70761 -11.1002
LeftShoulder1  -1.94126e-019 -3.10601e-018 -2.51263e-017
LeftArm  13.1406 23.6856 -69.2856
LeftForeArm  33.375 -64.8375 -21.0435
LeftHand  -0.217757 0.0855822 4.79951
RightShoulder  -4.96962e-017 0 -2.36833e-017
RightArm  -1.48427 -7.96228 73.8553
RightForeArm  51.5815 35.5275 5.02871
RightHand  -0.33713 -1.81081 -10.7595
LeftUpLeg  -22.5234 12.0065 4.91776
LeftLeg  41.3459 -2.54302 -1.96836
LeftFoot  -7.02526 0.0244884 0.560428
LeftToes  -31.3401 1.83942e-006 5.51297e-008
260
root  -36.0263 33.122 11.3553 179.838 71.1564 175.873
RightUpLeg  -18.6364 -21.3272 0.363444
RightLeg  38.9374 -4.05824 -2.88514
RightFoot  -14.2467 0.113463 1.47961
RightToes  -13.7993 -0.0502969 -0.122832
Spine  2.96097 0.787202 0.367585
Spine1  5.92223 1.62039 1.42212
HEad  -51.0555 4.74354 -10.1491
LeftShoulder1  -1.94126e-019 -3.10601e-018 -2.51263e-017
LeftArm  10.7471 28.0933 -70.3937
LeftForeArm  34.708 -66.3906 -22.7486
LeftHand  -0.2532 0.29936 5.79387
RightShoulder  -4.96962e-017 0 -2.36833e-017
RightArm  -0.933023 -9.32957 72.9694
RightForeArm  51.8498 37.6045 5.54092
RightHand  -0.359311 -1.43997 -10.4438
LeftUpLeg  -20.7333 11.6218 5.34691
LeftLeg  37.5501 -2.94576 -1.98146
LeftFoot  -5.26198 0.0151648 0.491504
LeftToes  -31.8161 1.83942e-006 5.51297e-008
261
root  -35.822 33.4884 11.4211 -178.628 70.5017 177.022
RightUpLeg  -16.5961 -21.2529 0.970469
RightLeg  34.5958 -4.81766 -2.8934
RightFoot  -12.5076 0.0974573 1.46524
RightToes  -13.7978 -0.0509071 -0.123858
Spine  2.42557 0.779822 0.524743
Spine1  4.85448 1.59078 1.7597
HEad  -53.4816 4.67589 -8.9007
LeftShoulder1  -1.94126e-019 -3.10601e-018 -2.51263e-017
LeftArm  7.77983 31.6621 -72.4821
LeftForeArm  35.6087 -66.7476 -23.0855
LeftHand  -0.286334 0.252258 6.50016
RightShoulder  -4.96962e-017 0 -2.36833e-017
RightArm  -1.0948 -10.7326 72.2245
RightForeArm  52.0077 39.1744 5.94932
RightHand  -0.362547 -1.42567 -10.503
LeftUpLeg  -19.2003 11.0879 5.79168
LeftLeg  33.8576 -3.13099 -1.82426
LeftFoot  -3.57889 0.00716535 0.390837
LeftToes  -32.1798 1.83942e-006 5.51297e-008
